<mxfile host="app.diagrams.net" modified="2023-03-12T14:37:50.650Z" agent="5.0 (Windows NT 10.0; Win64; x64) AppleWebKit/537.36 (KHTML, like Gecko) Chrome/110.0.0.0 Safari/537.36" etag="ghgM1ZuUS-gPsKnjaQDh" version="21.0.6" type="github">
  <diagram name="第 1 页" id="hRFBiUcs-8XfABKItwiJ">
    <mxGraphModel dx="2288" dy="629" grid="1" gridSize="10" guides="1" tooltips="1" connect="1" arrows="1" fold="1" page="1" pageScale="1" pageWidth="827" pageHeight="1169" math="0" shadow="0">
      <root>
        <mxCell id="0" />
        <mxCell id="1" parent="0" />
        <mxCell id="Wd2NRdJ9lG1hH6A2Uv5l-53" style="edgeStyle=none;shape=connector;rounded=0;orthogonalLoop=1;jettySize=auto;html=1;exitX=0.5;exitY=1;exitDx=0;exitDy=0;entryX=0.5;entryY=0;entryDx=0;entryDy=0;labelBackgroundColor=default;strokeColor=default;fontFamily=Helvetica;fontSize=11;fontColor=default;endArrow=none;endFill=0;" edge="1" parent="1" source="Wd2NRdJ9lG1hH6A2Uv5l-2" target="Wd2NRdJ9lG1hH6A2Uv5l-37">
          <mxGeometry relative="1" as="geometry" />
        </mxCell>
        <mxCell id="Wd2NRdJ9lG1hH6A2Uv5l-97" value="1" style="edgeLabel;html=1;align=center;verticalAlign=middle;resizable=0;points=[];fontSize=11;fontFamily=Helvetica;fontColor=default;" vertex="1" connectable="0" parent="Wd2NRdJ9lG1hH6A2Uv5l-53">
          <mxGeometry relative="1" as="geometry">
            <mxPoint as="offset" />
          </mxGeometry>
        </mxCell>
        <mxCell id="Wd2NRdJ9lG1hH6A2Uv5l-2" value="检测工具" style="rounded=0;whiteSpace=wrap;html=1;" vertex="1" parent="1">
          <mxGeometry x="110" y="310" width="120" height="50" as="geometry" />
        </mxCell>
        <mxCell id="Wd2NRdJ9lG1hH6A2Uv5l-68" value="1" style="edgeStyle=none;shape=connector;rounded=0;orthogonalLoop=1;jettySize=auto;html=1;exitX=0.5;exitY=1;exitDx=0;exitDy=0;entryX=0.5;entryY=0;entryDx=0;entryDy=0;labelBackgroundColor=default;strokeColor=default;fontFamily=Helvetica;fontSize=11;fontColor=default;endArrow=none;endFill=0;" edge="1" parent="1" source="Wd2NRdJ9lG1hH6A2Uv5l-3" target="Wd2NRdJ9lG1hH6A2Uv5l-22">
          <mxGeometry relative="1" as="geometry" />
        </mxCell>
        <mxCell id="Wd2NRdJ9lG1hH6A2Uv5l-100" style="edgeStyle=none;shape=connector;rounded=0;orthogonalLoop=1;jettySize=auto;html=1;exitX=1;exitY=0.5;exitDx=0;exitDy=0;entryX=0;entryY=0.5;entryDx=0;entryDy=0;labelBackgroundColor=default;strokeColor=default;fontFamily=Helvetica;fontSize=11;fontColor=default;endArrow=none;endFill=0;" edge="1" parent="1" source="Wd2NRdJ9lG1hH6A2Uv5l-3" target="Wd2NRdJ9lG1hH6A2Uv5l-38">
          <mxGeometry relative="1" as="geometry" />
        </mxCell>
        <mxCell id="Wd2NRdJ9lG1hH6A2Uv5l-101" value="n" style="edgeLabel;html=1;align=center;verticalAlign=middle;resizable=0;points=[];fontSize=11;fontFamily=Helvetica;fontColor=default;" vertex="1" connectable="0" parent="Wd2NRdJ9lG1hH6A2Uv5l-100">
          <mxGeometry relative="1" as="geometry">
            <mxPoint as="offset" />
          </mxGeometry>
        </mxCell>
        <mxCell id="Wd2NRdJ9lG1hH6A2Uv5l-113" style="edgeStyle=none;shape=connector;rounded=0;orthogonalLoop=1;jettySize=auto;html=1;exitX=0.25;exitY=1;exitDx=0;exitDy=0;labelBackgroundColor=default;strokeColor=default;fontFamily=Helvetica;fontSize=11;fontColor=default;endArrow=none;endFill=0;" edge="1" parent="1" source="Wd2NRdJ9lG1hH6A2Uv5l-3" target="Wd2NRdJ9lG1hH6A2Uv5l-17">
          <mxGeometry relative="1" as="geometry" />
        </mxCell>
        <mxCell id="Wd2NRdJ9lG1hH6A2Uv5l-3" value="检测指令" style="rounded=0;whiteSpace=wrap;html=1;" vertex="1" parent="1">
          <mxGeometry x="-20" y="470" width="120" height="50" as="geometry" />
        </mxCell>
        <mxCell id="Wd2NRdJ9lG1hH6A2Uv5l-57" style="edgeStyle=none;shape=connector;rounded=0;orthogonalLoop=1;jettySize=auto;html=1;exitX=0.5;exitY=1;exitDx=0;exitDy=0;entryX=0.5;entryY=0;entryDx=0;entryDy=0;labelBackgroundColor=default;strokeColor=default;fontFamily=Helvetica;fontSize=11;fontColor=default;endArrow=none;endFill=0;" edge="1" parent="1" source="Wd2NRdJ9lG1hH6A2Uv5l-4" target="Wd2NRdJ9lG1hH6A2Uv5l-18">
          <mxGeometry relative="1" as="geometry" />
        </mxCell>
        <mxCell id="Wd2NRdJ9lG1hH6A2Uv5l-58" style="edgeStyle=none;shape=connector;rounded=0;orthogonalLoop=1;jettySize=auto;html=1;exitX=0.75;exitY=1;exitDx=0;exitDy=0;labelBackgroundColor=default;strokeColor=default;fontFamily=Helvetica;fontSize=11;fontColor=default;endArrow=none;endFill=0;" edge="1" parent="1" source="Wd2NRdJ9lG1hH6A2Uv5l-4" target="Wd2NRdJ9lG1hH6A2Uv5l-19">
          <mxGeometry relative="1" as="geometry" />
        </mxCell>
        <mxCell id="Wd2NRdJ9lG1hH6A2Uv5l-117" style="edgeStyle=none;shape=connector;rounded=0;orthogonalLoop=1;jettySize=auto;html=1;exitX=0;exitY=0.5;exitDx=0;exitDy=0;labelBackgroundColor=default;strokeColor=default;fontFamily=Helvetica;fontSize=11;fontColor=default;endArrow=none;endFill=0;" edge="1" parent="1" source="Wd2NRdJ9lG1hH6A2Uv5l-4" target="Wd2NRdJ9lG1hH6A2Uv5l-24">
          <mxGeometry relative="1" as="geometry" />
        </mxCell>
        <mxCell id="Wd2NRdJ9lG1hH6A2Uv5l-118" style="edgeStyle=none;shape=connector;rounded=0;orthogonalLoop=1;jettySize=auto;html=1;exitX=1;exitY=0.5;exitDx=0;exitDy=0;entryX=0;entryY=0.5;entryDx=0;entryDy=0;labelBackgroundColor=default;strokeColor=default;fontFamily=Helvetica;fontSize=11;fontColor=default;endArrow=none;endFill=0;" edge="1" parent="1" source="Wd2NRdJ9lG1hH6A2Uv5l-4" target="Wd2NRdJ9lG1hH6A2Uv5l-20">
          <mxGeometry relative="1" as="geometry" />
        </mxCell>
        <mxCell id="Wd2NRdJ9lG1hH6A2Uv5l-4" value="漏洞验证代码" style="rounded=0;whiteSpace=wrap;html=1;" vertex="1" parent="1">
          <mxGeometry x="120" y="640" width="120" height="50" as="geometry" />
        </mxCell>
        <mxCell id="Wd2NRdJ9lG1hH6A2Uv5l-70" style="edgeStyle=none;shape=connector;rounded=0;orthogonalLoop=1;jettySize=auto;html=1;exitX=0.5;exitY=1;exitDx=0;exitDy=0;entryX=0.5;entryY=0;entryDx=0;entryDy=0;labelBackgroundColor=default;strokeColor=default;fontFamily=Helvetica;fontSize=11;fontColor=default;endArrow=none;endFill=0;" edge="1" parent="1" source="Wd2NRdJ9lG1hH6A2Uv5l-5" target="Wd2NRdJ9lG1hH6A2Uv5l-29">
          <mxGeometry relative="1" as="geometry" />
        </mxCell>
        <mxCell id="Wd2NRdJ9lG1hH6A2Uv5l-75" style="edgeStyle=none;shape=connector;rounded=0;orthogonalLoop=1;jettySize=auto;html=1;exitX=1;exitY=0.5;exitDx=0;exitDy=0;entryX=0;entryY=0.5;entryDx=0;entryDy=0;labelBackgroundColor=default;strokeColor=default;fontFamily=Helvetica;fontSize=11;fontColor=default;endArrow=none;endFill=0;" edge="1" parent="1" source="Wd2NRdJ9lG1hH6A2Uv5l-5" target="Wd2NRdJ9lG1hH6A2Uv5l-74">
          <mxGeometry relative="1" as="geometry" />
        </mxCell>
        <mxCell id="Wd2NRdJ9lG1hH6A2Uv5l-103" value="n" style="edgeLabel;html=1;align=center;verticalAlign=middle;resizable=0;points=[];fontSize=11;fontFamily=Helvetica;fontColor=default;" vertex="1" connectable="0" parent="Wd2NRdJ9lG1hH6A2Uv5l-75">
          <mxGeometry relative="1" as="geometry">
            <mxPoint y="1" as="offset" />
          </mxGeometry>
        </mxCell>
        <mxCell id="Wd2NRdJ9lG1hH6A2Uv5l-78" style="edgeStyle=none;shape=connector;rounded=0;orthogonalLoop=1;jettySize=auto;html=1;exitX=0.75;exitY=1;exitDx=0;exitDy=0;entryX=0;entryY=0;entryDx=0;entryDy=0;labelBackgroundColor=default;strokeColor=default;fontFamily=Helvetica;fontSize=11;fontColor=default;endArrow=none;endFill=0;" edge="1" parent="1" source="Wd2NRdJ9lG1hH6A2Uv5l-5" target="Wd2NRdJ9lG1hH6A2Uv5l-21">
          <mxGeometry relative="1" as="geometry" />
        </mxCell>
        <mxCell id="Wd2NRdJ9lG1hH6A2Uv5l-105" value="1" style="edgeLabel;html=1;align=center;verticalAlign=middle;resizable=0;points=[];fontSize=11;fontFamily=Helvetica;fontColor=default;" vertex="1" connectable="0" parent="Wd2NRdJ9lG1hH6A2Uv5l-78">
          <mxGeometry relative="1" as="geometry">
            <mxPoint as="offset" />
          </mxGeometry>
        </mxCell>
        <mxCell id="Wd2NRdJ9lG1hH6A2Uv5l-5" value="检测包" style="rounded=0;whiteSpace=wrap;html=1;" vertex="1" parent="1">
          <mxGeometry x="250" y="450" width="120" height="50" as="geometry" />
        </mxCell>
        <mxCell id="Wd2NRdJ9lG1hH6A2Uv5l-85" style="edgeStyle=none;shape=connector;rounded=0;orthogonalLoop=1;jettySize=auto;html=1;exitX=1;exitY=0.5;exitDx=0;exitDy=0;entryX=0;entryY=0;entryDx=0;entryDy=0;labelBackgroundColor=default;strokeColor=default;fontFamily=Helvetica;fontSize=11;fontColor=default;endArrow=none;endFill=0;" edge="1" parent="1" source="Wd2NRdJ9lG1hH6A2Uv5l-6" target="Wd2NRdJ9lG1hH6A2Uv5l-27">
          <mxGeometry relative="1" as="geometry" />
        </mxCell>
        <mxCell id="Wd2NRdJ9lG1hH6A2Uv5l-108" value="1" style="edgeLabel;html=1;align=center;verticalAlign=middle;resizable=0;points=[];fontSize=11;fontFamily=Helvetica;fontColor=default;" vertex="1" connectable="0" parent="Wd2NRdJ9lG1hH6A2Uv5l-85">
          <mxGeometry relative="1" as="geometry">
            <mxPoint as="offset" />
          </mxGeometry>
        </mxCell>
        <mxCell id="Wd2NRdJ9lG1hH6A2Uv5l-6" value="用户" style="rounded=0;whiteSpace=wrap;html=1;" vertex="1" parent="1">
          <mxGeometry x="480" y="360" width="120" height="50" as="geometry" />
        </mxCell>
        <mxCell id="Wd2NRdJ9lG1hH6A2Uv5l-81" style="edgeStyle=none;shape=connector;rounded=0;orthogonalLoop=1;jettySize=auto;html=1;exitX=0.5;exitY=1;exitDx=0;exitDy=0;entryX=0.5;entryY=0;entryDx=0;entryDy=0;labelBackgroundColor=default;strokeColor=default;fontFamily=Helvetica;fontSize=11;fontColor=default;endArrow=none;endFill=0;" edge="1" parent="1" source="Wd2NRdJ9lG1hH6A2Uv5l-7" target="Wd2NRdJ9lG1hH6A2Uv5l-31">
          <mxGeometry relative="1" as="geometry" />
        </mxCell>
        <mxCell id="Wd2NRdJ9lG1hH6A2Uv5l-83" style="edgeStyle=none;shape=connector;rounded=0;orthogonalLoop=1;jettySize=auto;html=1;exitX=1;exitY=0.5;exitDx=0;exitDy=0;entryX=0;entryY=0.5;entryDx=0;entryDy=0;labelBackgroundColor=default;strokeColor=default;fontFamily=Helvetica;fontSize=11;fontColor=default;endArrow=none;endFill=0;" edge="1" parent="1" source="Wd2NRdJ9lG1hH6A2Uv5l-7" target="Wd2NRdJ9lG1hH6A2Uv5l-82">
          <mxGeometry relative="1" as="geometry" />
        </mxCell>
        <mxCell id="Wd2NRdJ9lG1hH6A2Uv5l-106" value="1" style="edgeLabel;html=1;align=center;verticalAlign=middle;resizable=0;points=[];fontSize=11;fontFamily=Helvetica;fontColor=default;" vertex="1" connectable="0" parent="Wd2NRdJ9lG1hH6A2Uv5l-83">
          <mxGeometry relative="1" as="geometry">
            <mxPoint as="offset" />
          </mxGeometry>
        </mxCell>
        <mxCell id="Wd2NRdJ9lG1hH6A2Uv5l-123" style="edgeStyle=none;shape=connector;rounded=0;orthogonalLoop=1;jettySize=auto;html=1;exitX=0.75;exitY=1;exitDx=0;exitDy=0;entryX=0;entryY=0;entryDx=0;entryDy=0;labelBackgroundColor=default;strokeColor=default;fontFamily=Helvetica;fontSize=11;fontColor=default;endArrow=none;endFill=0;" edge="1" parent="1" source="Wd2NRdJ9lG1hH6A2Uv5l-7" target="Wd2NRdJ9lG1hH6A2Uv5l-122">
          <mxGeometry relative="1" as="geometry" />
        </mxCell>
        <mxCell id="Wd2NRdJ9lG1hH6A2Uv5l-7" value="检测任务" style="rounded=0;whiteSpace=wrap;html=1;" vertex="1" parent="1">
          <mxGeometry x="470" y="610" width="120" height="50" as="geometry" />
        </mxCell>
        <mxCell id="Wd2NRdJ9lG1hH6A2Uv5l-91" style="edgeStyle=none;shape=connector;rounded=0;orthogonalLoop=1;jettySize=auto;html=1;exitX=0.75;exitY=0;exitDx=0;exitDy=0;entryX=0;entryY=1;entryDx=0;entryDy=0;labelBackgroundColor=default;strokeColor=default;fontFamily=Helvetica;fontSize=11;fontColor=default;endArrow=none;endFill=0;" edge="1" parent="1" source="Wd2NRdJ9lG1hH6A2Uv5l-9" target="Wd2NRdJ9lG1hH6A2Uv5l-33">
          <mxGeometry relative="1" as="geometry" />
        </mxCell>
        <mxCell id="Wd2NRdJ9lG1hH6A2Uv5l-92" style="edgeStyle=none;shape=connector;rounded=0;orthogonalLoop=1;jettySize=auto;html=1;exitX=1;exitY=0.5;exitDx=0;exitDy=0;entryX=0;entryY=0.5;entryDx=0;entryDy=0;labelBackgroundColor=default;strokeColor=default;fontFamily=Helvetica;fontSize=11;fontColor=default;endArrow=none;endFill=0;" edge="1" parent="1" source="Wd2NRdJ9lG1hH6A2Uv5l-9" target="Wd2NRdJ9lG1hH6A2Uv5l-35">
          <mxGeometry relative="1" as="geometry" />
        </mxCell>
        <mxCell id="Wd2NRdJ9lG1hH6A2Uv5l-95" style="edgeStyle=none;shape=connector;rounded=0;orthogonalLoop=1;jettySize=auto;html=1;exitX=0.5;exitY=1;exitDx=0;exitDy=0;entryX=0.5;entryY=0;entryDx=0;entryDy=0;labelBackgroundColor=default;strokeColor=default;fontFamily=Helvetica;fontSize=11;fontColor=default;endArrow=none;endFill=0;" edge="1" parent="1" source="Wd2NRdJ9lG1hH6A2Uv5l-9" target="Wd2NRdJ9lG1hH6A2Uv5l-94">
          <mxGeometry relative="1" as="geometry" />
        </mxCell>
        <mxCell id="Wd2NRdJ9lG1hH6A2Uv5l-121" style="edgeStyle=none;shape=connector;rounded=0;orthogonalLoop=1;jettySize=auto;html=1;exitX=1;exitY=0.75;exitDx=0;exitDy=0;labelBackgroundColor=default;strokeColor=default;fontFamily=Helvetica;fontSize=11;fontColor=default;endArrow=none;endFill=0;" edge="1" parent="1" source="Wd2NRdJ9lG1hH6A2Uv5l-9" target="Wd2NRdJ9lG1hH6A2Uv5l-36">
          <mxGeometry relative="1" as="geometry" />
        </mxCell>
        <mxCell id="Wd2NRdJ9lG1hH6A2Uv5l-125" style="edgeStyle=none;shape=connector;rounded=0;orthogonalLoop=1;jettySize=auto;html=1;exitX=0.75;exitY=1;exitDx=0;exitDy=0;entryX=0;entryY=0;entryDx=0;entryDy=0;labelBackgroundColor=default;strokeColor=default;fontFamily=Helvetica;fontSize=11;fontColor=default;endArrow=none;endFill=0;" edge="1" parent="1" source="Wd2NRdJ9lG1hH6A2Uv5l-9" target="Wd2NRdJ9lG1hH6A2Uv5l-124">
          <mxGeometry relative="1" as="geometry" />
        </mxCell>
        <mxCell id="Wd2NRdJ9lG1hH6A2Uv5l-9" value="检测图节点关系" style="rounded=0;whiteSpace=wrap;html=1;" vertex="1" parent="1">
          <mxGeometry x="750" y="600" width="120" height="50" as="geometry" />
        </mxCell>
        <mxCell id="Wd2NRdJ9lG1hH6A2Uv5l-88" style="edgeStyle=none;shape=connector;rounded=0;orthogonalLoop=1;jettySize=auto;html=1;exitX=0.5;exitY=1;exitDx=0;exitDy=0;entryX=0.5;entryY=0;entryDx=0;entryDy=0;labelBackgroundColor=default;strokeColor=default;fontFamily=Helvetica;fontSize=11;fontColor=default;endArrow=none;endFill=0;" edge="1" parent="1" source="Wd2NRdJ9lG1hH6A2Uv5l-10" target="Wd2NRdJ9lG1hH6A2Uv5l-87">
          <mxGeometry relative="1" as="geometry" />
        </mxCell>
        <mxCell id="Wd2NRdJ9lG1hH6A2Uv5l-110" value="1" style="edgeLabel;html=1;align=center;verticalAlign=middle;resizable=0;points=[];fontSize=11;fontFamily=Helvetica;fontColor=default;" vertex="1" connectable="0" parent="Wd2NRdJ9lG1hH6A2Uv5l-88">
          <mxGeometry relative="1" as="geometry">
            <mxPoint as="offset" />
          </mxGeometry>
        </mxCell>
        <mxCell id="Wd2NRdJ9lG1hH6A2Uv5l-119" style="edgeStyle=none;shape=connector;rounded=0;orthogonalLoop=1;jettySize=auto;html=1;exitX=1;exitY=0.5;exitDx=0;exitDy=0;entryX=0;entryY=0.5;entryDx=0;entryDy=0;labelBackgroundColor=default;strokeColor=default;fontFamily=Helvetica;fontSize=11;fontColor=default;endArrow=none;endFill=0;" edge="1" parent="1" source="Wd2NRdJ9lG1hH6A2Uv5l-10" target="Wd2NRdJ9lG1hH6A2Uv5l-90">
          <mxGeometry relative="1" as="geometry" />
        </mxCell>
        <mxCell id="Wd2NRdJ9lG1hH6A2Uv5l-10" value="检测图" style="rounded=0;whiteSpace=wrap;html=1;" vertex="1" parent="1">
          <mxGeometry x="750" y="400" width="120" height="50" as="geometry" />
        </mxCell>
        <mxCell id="Wd2NRdJ9lG1hH6A2Uv5l-69" style="edgeStyle=none;shape=connector;rounded=0;orthogonalLoop=1;jettySize=auto;html=1;exitX=0.5;exitY=1;exitDx=0;exitDy=0;entryX=0.5;entryY=0;entryDx=0;entryDy=0;labelBackgroundColor=default;strokeColor=default;fontFamily=Helvetica;fontSize=11;fontColor=default;endArrow=none;endFill=0;" edge="1" parent="1" source="Wd2NRdJ9lG1hH6A2Uv5l-11" target="Wd2NRdJ9lG1hH6A2Uv5l-5">
          <mxGeometry relative="1" as="geometry" />
        </mxCell>
        <mxCell id="Wd2NRdJ9lG1hH6A2Uv5l-11" value="id" style="ellipse;whiteSpace=wrap;html=1;" vertex="1" parent="1">
          <mxGeometry x="270" y="360" width="120" height="50" as="geometry" />
        </mxCell>
        <mxCell id="Wd2NRdJ9lG1hH6A2Uv5l-40" style="rounded=0;orthogonalLoop=1;jettySize=auto;html=1;exitX=0.5;exitY=1;exitDx=0;exitDy=0;entryX=0.5;entryY=0;entryDx=0;entryDy=0;endArrow=none;endFill=0;" edge="1" parent="1" source="Wd2NRdJ9lG1hH6A2Uv5l-12" target="Wd2NRdJ9lG1hH6A2Uv5l-2">
          <mxGeometry relative="1" as="geometry" />
        </mxCell>
        <mxCell id="Wd2NRdJ9lG1hH6A2Uv5l-12" value="run_permission" style="ellipse;whiteSpace=wrap;html=1;" vertex="1" parent="1">
          <mxGeometry x="160" y="200" width="120" height="50" as="geometry" />
        </mxCell>
        <mxCell id="Wd2NRdJ9lG1hH6A2Uv5l-41" style="edgeStyle=none;shape=connector;rounded=0;orthogonalLoop=1;jettySize=auto;html=1;exitX=1;exitY=1;exitDx=0;exitDy=0;entryX=0.5;entryY=0;entryDx=0;entryDy=0;labelBackgroundColor=default;strokeColor=default;fontFamily=Helvetica;fontSize=11;fontColor=default;endArrow=none;endFill=0;" edge="1" parent="1" source="Wd2NRdJ9lG1hH6A2Uv5l-13" target="Wd2NRdJ9lG1hH6A2Uv5l-2">
          <mxGeometry relative="1" as="geometry" />
        </mxCell>
        <mxCell id="Wd2NRdJ9lG1hH6A2Uv5l-13" value="ATT&amp;amp;CK_stage" style="ellipse;whiteSpace=wrap;html=1;" vertex="1" parent="1">
          <mxGeometry x="20" y="200" width="120" height="50" as="geometry" />
        </mxCell>
        <mxCell id="Wd2NRdJ9lG1hH6A2Uv5l-42" style="edgeStyle=none;shape=connector;rounded=0;orthogonalLoop=1;jettySize=auto;html=1;exitX=0.5;exitY=1;exitDx=0;exitDy=0;labelBackgroundColor=default;strokeColor=default;fontFamily=Helvetica;fontSize=11;fontColor=default;endArrow=none;endFill=0;entryX=0.5;entryY=0;entryDx=0;entryDy=0;" edge="1" parent="1" source="Wd2NRdJ9lG1hH6A2Uv5l-14" target="Wd2NRdJ9lG1hH6A2Uv5l-2">
          <mxGeometry relative="1" as="geometry" />
        </mxCell>
        <mxCell id="Wd2NRdJ9lG1hH6A2Uv5l-14" value="result" style="ellipse;whiteSpace=wrap;html=1;" vertex="1" parent="1">
          <mxGeometry x="270" y="240" width="120" height="50" as="geometry" />
        </mxCell>
        <mxCell id="Wd2NRdJ9lG1hH6A2Uv5l-39" style="rounded=0;orthogonalLoop=1;jettySize=auto;html=1;exitX=1;exitY=0.5;exitDx=0;exitDy=0;entryX=0.443;entryY=-0.02;entryDx=0;entryDy=0;entryPerimeter=0;endArrow=none;endFill=0;" edge="1" parent="1" source="Wd2NRdJ9lG1hH6A2Uv5l-15" target="Wd2NRdJ9lG1hH6A2Uv5l-2">
          <mxGeometry relative="1" as="geometry" />
        </mxCell>
        <mxCell id="Wd2NRdJ9lG1hH6A2Uv5l-15" value="id" style="ellipse;whiteSpace=wrap;html=1;" vertex="1" parent="1">
          <mxGeometry x="-60" y="260" width="120" height="50" as="geometry" />
        </mxCell>
        <mxCell id="Wd2NRdJ9lG1hH6A2Uv5l-112" style="edgeStyle=none;shape=connector;rounded=0;orthogonalLoop=1;jettySize=auto;html=1;exitX=1;exitY=1;exitDx=0;exitDy=0;entryX=0.5;entryY=0;entryDx=0;entryDy=0;labelBackgroundColor=default;strokeColor=default;fontFamily=Helvetica;fontSize=11;fontColor=default;endArrow=none;endFill=0;" edge="1" parent="1" source="Wd2NRdJ9lG1hH6A2Uv5l-16" target="Wd2NRdJ9lG1hH6A2Uv5l-3">
          <mxGeometry relative="1" as="geometry" />
        </mxCell>
        <mxCell id="Wd2NRdJ9lG1hH6A2Uv5l-16" value="package_id" style="ellipse;whiteSpace=wrap;html=1;" vertex="1" parent="1">
          <mxGeometry x="-60" y="350" width="120" height="50" as="geometry" />
        </mxCell>
        <mxCell id="Wd2NRdJ9lG1hH6A2Uv5l-17" value="id" style="ellipse;whiteSpace=wrap;html=1;" vertex="1" parent="1">
          <mxGeometry x="-60" y="600" width="120" height="50" as="geometry" />
        </mxCell>
        <mxCell id="Wd2NRdJ9lG1hH6A2Uv5l-18" value="ATT&amp;amp;CK_stage" style="ellipse;whiteSpace=wrap;html=1;" vertex="1" parent="1">
          <mxGeometry x="100" y="710" width="120" height="50" as="geometry" />
        </mxCell>
        <mxCell id="Wd2NRdJ9lG1hH6A2Uv5l-19" value="result" style="ellipse;whiteSpace=wrap;html=1;" vertex="1" parent="1">
          <mxGeometry x="250" y="710" width="120" height="50" as="geometry" />
        </mxCell>
        <mxCell id="Wd2NRdJ9lG1hH6A2Uv5l-20" value="run_permission" style="ellipse;whiteSpace=wrap;html=1;" vertex="1" parent="1">
          <mxGeometry x="290" y="640" width="120" height="50" as="geometry" />
        </mxCell>
        <mxCell id="Wd2NRdJ9lG1hH6A2Uv5l-79" value="1" style="edgeStyle=none;shape=connector;rounded=0;orthogonalLoop=1;jettySize=auto;html=1;exitX=1;exitY=1;exitDx=0;exitDy=0;entryX=0;entryY=0.5;entryDx=0;entryDy=0;labelBackgroundColor=default;strokeColor=default;fontFamily=Helvetica;fontSize=11;fontColor=default;endArrow=none;endFill=0;" edge="1" parent="1" source="Wd2NRdJ9lG1hH6A2Uv5l-21" target="Wd2NRdJ9lG1hH6A2Uv5l-7">
          <mxGeometry relative="1" as="geometry" />
        </mxCell>
        <mxCell id="Wd2NRdJ9lG1hH6A2Uv5l-21" value="对应" style="rhombus;whiteSpace=wrap;html=1;" vertex="1" parent="1">
          <mxGeometry x="360" y="550" width="80" height="50" as="geometry" />
        </mxCell>
        <mxCell id="Wd2NRdJ9lG1hH6A2Uv5l-114" style="edgeStyle=none;shape=connector;rounded=0;orthogonalLoop=1;jettySize=auto;html=1;exitX=0.5;exitY=1;exitDx=0;exitDy=0;entryX=0.57;entryY=0.036;entryDx=0;entryDy=0;entryPerimeter=0;labelBackgroundColor=default;strokeColor=default;fontFamily=Helvetica;fontSize=11;fontColor=default;endArrow=none;endFill=0;" edge="1" parent="1" source="Wd2NRdJ9lG1hH6A2Uv5l-22" target="Wd2NRdJ9lG1hH6A2Uv5l-4">
          <mxGeometry relative="1" as="geometry" />
        </mxCell>
        <mxCell id="Wd2NRdJ9lG1hH6A2Uv5l-115" value="1" style="edgeLabel;html=1;align=center;verticalAlign=middle;resizable=0;points=[];fontSize=11;fontFamily=Helvetica;fontColor=default;" vertex="1" connectable="0" parent="Wd2NRdJ9lG1hH6A2Uv5l-114">
          <mxGeometry relative="1" as="geometry">
            <mxPoint as="offset" />
          </mxGeometry>
        </mxCell>
        <mxCell id="Wd2NRdJ9lG1hH6A2Uv5l-22" value="对应" style="rhombus;whiteSpace=wrap;html=1;" vertex="1" parent="1">
          <mxGeometry x="40" y="550" width="80" height="50" as="geometry" />
        </mxCell>
        <mxCell id="Wd2NRdJ9lG1hH6A2Uv5l-80" style="edgeStyle=none;shape=connector;rounded=0;orthogonalLoop=1;jettySize=auto;html=1;exitX=0.5;exitY=1;exitDx=0;exitDy=0;entryX=0.5;entryY=0;entryDx=0;entryDy=0;labelBackgroundColor=default;strokeColor=default;fontFamily=Helvetica;fontSize=11;fontColor=default;endArrow=none;endFill=0;" edge="1" parent="1" source="Wd2NRdJ9lG1hH6A2Uv5l-23" target="Wd2NRdJ9lG1hH6A2Uv5l-7">
          <mxGeometry relative="1" as="geometry" />
        </mxCell>
        <mxCell id="Wd2NRdJ9lG1hH6A2Uv5l-23" value="id" style="ellipse;whiteSpace=wrap;html=1;" vertex="1" parent="1">
          <mxGeometry x="490" y="500" width="120" height="50" as="geometry" />
        </mxCell>
        <mxCell id="Wd2NRdJ9lG1hH6A2Uv5l-24" value="id" style="ellipse;whiteSpace=wrap;html=1;" vertex="1" parent="1">
          <mxGeometry x="-30" y="680" width="120" height="50" as="geometry" />
        </mxCell>
        <mxCell id="Wd2NRdJ9lG1hH6A2Uv5l-86" style="edgeStyle=none;shape=connector;rounded=0;orthogonalLoop=1;jettySize=auto;html=1;exitX=1;exitY=0.5;exitDx=0;exitDy=0;entryX=0;entryY=0.5;entryDx=0;entryDy=0;labelBackgroundColor=default;strokeColor=default;fontFamily=Helvetica;fontSize=11;fontColor=default;endArrow=none;endFill=0;" edge="1" parent="1" source="Wd2NRdJ9lG1hH6A2Uv5l-27" target="Wd2NRdJ9lG1hH6A2Uv5l-10">
          <mxGeometry relative="1" as="geometry" />
        </mxCell>
        <mxCell id="Wd2NRdJ9lG1hH6A2Uv5l-109" value="n" style="edgeLabel;html=1;align=center;verticalAlign=middle;resizable=0;points=[];fontSize=11;fontFamily=Helvetica;fontColor=default;" vertex="1" connectable="0" parent="Wd2NRdJ9lG1hH6A2Uv5l-86">
          <mxGeometry relative="1" as="geometry">
            <mxPoint as="offset" />
          </mxGeometry>
        </mxCell>
        <mxCell id="Wd2NRdJ9lG1hH6A2Uv5l-27" value="拥有" style="rhombus;whiteSpace=wrap;html=1;" vertex="1" parent="1">
          <mxGeometry x="640" y="380" width="80" height="50" as="geometry" />
        </mxCell>
        <mxCell id="Wd2NRdJ9lG1hH6A2Uv5l-51" style="edgeStyle=none;shape=connector;rounded=0;orthogonalLoop=1;jettySize=auto;html=1;exitX=0.5;exitY=1;exitDx=0;exitDy=0;entryX=0.5;entryY=0;entryDx=0;entryDy=0;labelBackgroundColor=default;strokeColor=default;fontFamily=Helvetica;fontSize=11;fontColor=default;endArrow=none;endFill=0;" edge="1" parent="1" source="Wd2NRdJ9lG1hH6A2Uv5l-28" target="Wd2NRdJ9lG1hH6A2Uv5l-6">
          <mxGeometry relative="1" as="geometry" />
        </mxCell>
        <mxCell id="Wd2NRdJ9lG1hH6A2Uv5l-28" value="user_id" style="ellipse;whiteSpace=wrap;html=1;" vertex="1" parent="1">
          <mxGeometry x="510" y="250" width="120" height="50" as="geometry" />
        </mxCell>
        <mxCell id="Wd2NRdJ9lG1hH6A2Uv5l-29" value="user_id" style="ellipse;whiteSpace=wrap;html=1;" vertex="1" parent="1">
          <mxGeometry x="200" y="550" width="120" height="50" as="geometry" />
        </mxCell>
        <mxCell id="Wd2NRdJ9lG1hH6A2Uv5l-52" style="edgeStyle=none;shape=connector;rounded=0;orthogonalLoop=1;jettySize=auto;html=1;exitX=0.5;exitY=1;exitDx=0;exitDy=0;entryX=0.5;entryY=0;entryDx=0;entryDy=0;labelBackgroundColor=default;strokeColor=default;fontFamily=Helvetica;fontSize=11;fontColor=default;endArrow=none;endFill=0;" edge="1" parent="1" source="Wd2NRdJ9lG1hH6A2Uv5l-30" target="Wd2NRdJ9lG1hH6A2Uv5l-6">
          <mxGeometry relative="1" as="geometry" />
        </mxCell>
        <mxCell id="Wd2NRdJ9lG1hH6A2Uv5l-30" value="password" style="ellipse;whiteSpace=wrap;html=1;" vertex="1" parent="1">
          <mxGeometry x="630" y="270" width="120" height="50" as="geometry" />
        </mxCell>
        <mxCell id="Wd2NRdJ9lG1hH6A2Uv5l-31" value="user_id" style="ellipse;whiteSpace=wrap;html=1;" vertex="1" parent="1">
          <mxGeometry x="430" y="700" width="120" height="50" as="geometry" />
        </mxCell>
        <mxCell id="Wd2NRdJ9lG1hH6A2Uv5l-49" style="edgeStyle=none;shape=connector;rounded=0;orthogonalLoop=1;jettySize=auto;html=1;exitX=0.5;exitY=1;exitDx=0;exitDy=0;entryX=0.5;entryY=0;entryDx=0;entryDy=0;labelBackgroundColor=default;strokeColor=default;fontFamily=Helvetica;fontSize=11;fontColor=default;endArrow=none;endFill=0;" edge="1" parent="1" source="Wd2NRdJ9lG1hH6A2Uv5l-32" target="Wd2NRdJ9lG1hH6A2Uv5l-6">
          <mxGeometry relative="1" as="geometry" />
        </mxCell>
        <mxCell id="Wd2NRdJ9lG1hH6A2Uv5l-32" value="id" style="ellipse;whiteSpace=wrap;html=1;" vertex="1" parent="1">
          <mxGeometry x="390" y="220" width="120" height="50" as="geometry" />
        </mxCell>
        <mxCell id="Wd2NRdJ9lG1hH6A2Uv5l-33" value="description" style="ellipse;whiteSpace=wrap;html=1;" vertex="1" parent="1">
          <mxGeometry x="870" y="480" width="120" height="50" as="geometry" />
        </mxCell>
        <mxCell id="Wd2NRdJ9lG1hH6A2Uv5l-96" style="edgeStyle=none;shape=connector;rounded=0;orthogonalLoop=1;jettySize=auto;html=1;exitX=0.5;exitY=1;exitDx=0;exitDy=0;entryX=0.5;entryY=0;entryDx=0;entryDy=0;labelBackgroundColor=default;strokeColor=default;fontFamily=Helvetica;fontSize=11;fontColor=default;endArrow=none;endFill=0;" edge="1" parent="1" source="Wd2NRdJ9lG1hH6A2Uv5l-34" target="Wd2NRdJ9lG1hH6A2Uv5l-10">
          <mxGeometry relative="1" as="geometry" />
        </mxCell>
        <mxCell id="Wd2NRdJ9lG1hH6A2Uv5l-34" value="id" style="ellipse;whiteSpace=wrap;html=1;" vertex="1" parent="1">
          <mxGeometry x="770" y="300" width="120" height="50" as="geometry" />
        </mxCell>
        <mxCell id="Wd2NRdJ9lG1hH6A2Uv5l-35" value="endNode" style="ellipse;whiteSpace=wrap;html=1;" vertex="1" parent="1">
          <mxGeometry x="900" y="550" width="120" height="50" as="geometry" />
        </mxCell>
        <mxCell id="Wd2NRdJ9lG1hH6A2Uv5l-36" value="beginNode" style="ellipse;whiteSpace=wrap;html=1;" vertex="1" parent="1">
          <mxGeometry x="900" y="630" width="120" height="50" as="geometry" />
        </mxCell>
        <mxCell id="Wd2NRdJ9lG1hH6A2Uv5l-54" value="1" style="edgeStyle=none;shape=connector;rounded=0;orthogonalLoop=1;jettySize=auto;html=1;exitX=0.5;exitY=1;exitDx=0;exitDy=0;labelBackgroundColor=default;strokeColor=default;fontFamily=Helvetica;fontSize=11;fontColor=default;endArrow=none;endFill=0;" edge="1" parent="1" source="Wd2NRdJ9lG1hH6A2Uv5l-37" target="Wd2NRdJ9lG1hH6A2Uv5l-3">
          <mxGeometry relative="1" as="geometry" />
        </mxCell>
        <mxCell id="Wd2NRdJ9lG1hH6A2Uv5l-37" value="对应" style="rhombus;whiteSpace=wrap;html=1;" vertex="1" parent="1">
          <mxGeometry x="80" y="380" width="80" height="50" as="geometry" />
        </mxCell>
        <mxCell id="Wd2NRdJ9lG1hH6A2Uv5l-73" style="edgeStyle=none;shape=connector;rounded=0;orthogonalLoop=1;jettySize=auto;html=1;exitX=1;exitY=0.5;exitDx=0;exitDy=0;entryX=0;entryY=0.5;entryDx=0;entryDy=0;labelBackgroundColor=default;strokeColor=default;fontFamily=Helvetica;fontSize=11;fontColor=default;endArrow=none;endFill=0;" edge="1" parent="1" source="Wd2NRdJ9lG1hH6A2Uv5l-38" target="Wd2NRdJ9lG1hH6A2Uv5l-5">
          <mxGeometry relative="1" as="geometry" />
        </mxCell>
        <mxCell id="Wd2NRdJ9lG1hH6A2Uv5l-102" value="1" style="edgeLabel;html=1;align=center;verticalAlign=middle;resizable=0;points=[];fontSize=11;fontFamily=Helvetica;fontColor=default;" vertex="1" connectable="0" parent="Wd2NRdJ9lG1hH6A2Uv5l-73">
          <mxGeometry relative="1" as="geometry">
            <mxPoint as="offset" />
          </mxGeometry>
        </mxCell>
        <mxCell id="Wd2NRdJ9lG1hH6A2Uv5l-38" value="拥有" style="rhombus;whiteSpace=wrap;html=1;" vertex="1" parent="1">
          <mxGeometry x="130" y="460" width="80" height="50" as="geometry" />
        </mxCell>
        <mxCell id="Wd2NRdJ9lG1hH6A2Uv5l-76" style="edgeStyle=none;shape=connector;rounded=0;orthogonalLoop=1;jettySize=auto;html=1;exitX=1;exitY=0.5;exitDx=0;exitDy=0;entryX=0.25;entryY=1;entryDx=0;entryDy=0;labelBackgroundColor=default;strokeColor=default;fontFamily=Helvetica;fontSize=11;fontColor=default;endArrow=none;endFill=0;" edge="1" parent="1" source="Wd2NRdJ9lG1hH6A2Uv5l-74" target="Wd2NRdJ9lG1hH6A2Uv5l-6">
          <mxGeometry relative="1" as="geometry" />
        </mxCell>
        <mxCell id="Wd2NRdJ9lG1hH6A2Uv5l-104" value="1" style="edgeLabel;html=1;align=center;verticalAlign=middle;resizable=0;points=[];fontSize=11;fontFamily=Helvetica;fontColor=default;" vertex="1" connectable="0" parent="Wd2NRdJ9lG1hH6A2Uv5l-76">
          <mxGeometry relative="1" as="geometry">
            <mxPoint as="offset" />
          </mxGeometry>
        </mxCell>
        <mxCell id="Wd2NRdJ9lG1hH6A2Uv5l-74" value="拥有" style="rhombus;whiteSpace=wrap;html=1;" vertex="1" parent="1">
          <mxGeometry x="410" y="450" width="80" height="50" as="geometry" />
        </mxCell>
        <mxCell id="Wd2NRdJ9lG1hH6A2Uv5l-84" style="edgeStyle=none;shape=connector;rounded=0;orthogonalLoop=1;jettySize=auto;html=1;exitX=1;exitY=0.5;exitDx=0;exitDy=0;labelBackgroundColor=default;strokeColor=default;fontFamily=Helvetica;fontSize=11;fontColor=default;endArrow=none;endFill=0;" edge="1" parent="1" source="Wd2NRdJ9lG1hH6A2Uv5l-82" target="Wd2NRdJ9lG1hH6A2Uv5l-9">
          <mxGeometry relative="1" as="geometry" />
        </mxCell>
        <mxCell id="Wd2NRdJ9lG1hH6A2Uv5l-107" value="1" style="edgeLabel;html=1;align=center;verticalAlign=middle;resizable=0;points=[];fontSize=11;fontFamily=Helvetica;fontColor=default;" vertex="1" connectable="0" parent="Wd2NRdJ9lG1hH6A2Uv5l-84">
          <mxGeometry relative="1" as="geometry">
            <mxPoint as="offset" />
          </mxGeometry>
        </mxCell>
        <mxCell id="Wd2NRdJ9lG1hH6A2Uv5l-82" value="对应" style="rhombus;whiteSpace=wrap;html=1;" vertex="1" parent="1">
          <mxGeometry x="630" y="610" width="80" height="50" as="geometry" />
        </mxCell>
        <mxCell id="Wd2NRdJ9lG1hH6A2Uv5l-89" style="edgeStyle=none;shape=connector;rounded=0;orthogonalLoop=1;jettySize=auto;html=1;exitX=0.5;exitY=1;exitDx=0;exitDy=0;labelBackgroundColor=default;strokeColor=default;fontFamily=Helvetica;fontSize=11;fontColor=default;endArrow=none;endFill=0;" edge="1" parent="1" source="Wd2NRdJ9lG1hH6A2Uv5l-87" target="Wd2NRdJ9lG1hH6A2Uv5l-9">
          <mxGeometry relative="1" as="geometry" />
        </mxCell>
        <mxCell id="Wd2NRdJ9lG1hH6A2Uv5l-111" value="n" style="edgeLabel;html=1;align=center;verticalAlign=middle;resizable=0;points=[];fontSize=11;fontFamily=Helvetica;fontColor=default;" vertex="1" connectable="0" parent="Wd2NRdJ9lG1hH6A2Uv5l-89">
          <mxGeometry relative="1" as="geometry">
            <mxPoint as="offset" />
          </mxGeometry>
        </mxCell>
        <mxCell id="Wd2NRdJ9lG1hH6A2Uv5l-87" value="拥有" style="rhombus;whiteSpace=wrap;html=1;" vertex="1" parent="1">
          <mxGeometry x="760" y="500" width="80" height="50" as="geometry" />
        </mxCell>
        <mxCell id="Wd2NRdJ9lG1hH6A2Uv5l-90" value="user_id" style="ellipse;whiteSpace=wrap;html=1;" vertex="1" parent="1">
          <mxGeometry x="890" y="380" width="120" height="50" as="geometry" />
        </mxCell>
        <mxCell id="Wd2NRdJ9lG1hH6A2Uv5l-94" value="id" style="ellipse;whiteSpace=wrap;html=1;" vertex="1" parent="1">
          <mxGeometry x="710" y="690" width="120" height="50" as="geometry" />
        </mxCell>
        <mxCell id="Wd2NRdJ9lG1hH6A2Uv5l-122" value="package_id" style="ellipse;whiteSpace=wrap;html=1;" vertex="1" parent="1">
          <mxGeometry x="580" y="700" width="120" height="50" as="geometry" />
        </mxCell>
        <mxCell id="Wd2NRdJ9lG1hH6A2Uv5l-124" value="graph_id" style="ellipse;whiteSpace=wrap;html=1;" vertex="1" parent="1">
          <mxGeometry x="860" y="690" width="120" height="50" as="geometry" />
        </mxCell>
      </root>
    </mxGraphModel>
  </diagram>
</mxfile>
